<svg id="Layer_1" data-name="Layer 1" xmlns="http://www.w3.org/2000/svg" viewBox="0 0 307.33921 181.46349"><defs><style>.cls-1{fill:#fff;}.cls-2{fill:#00a0af;}.cls-3{fill:#002d62;}</style></defs><title>ddrc-color-logo</title><path class="cls-1" d="M101.32784,56.18863a46.03693,46.03693,0,0,0-10.9959-23.32777A46.14221,46.14221,0,0,0,46.20342,0a46.53642,46.53642,0,0,0-7.26868.57287A46.125,46.125,0,0,0,10.56641,75.50166,22.08476,22.08476,0,1,0,41.19685,107.185a46.13983,46.13983,0,0,0,60.131-50.99642"/><path class="cls-2" d="M151.67341,57.286h-3.73624a2.35272,2.35272,0,0,0-2.355,2.35271V86.945c-3.55961-6.07989-10.59735-9.8637-18.76949-9.8637-15.74209,0-25.916,11.91524-25.916,30.35421,0,18.43443,10.17391,30.34514,25.916,30.34514,7.40226,0,14.81364-3.78155,18.76949-9.31573v5.34171a2.35611,2.35611,0,0,0,2.355,2.355h3.73624a2.35516,2.35516,0,0,0,2.3505-2.355V59.63868a2.35176,2.35176,0,0,0-2.3505-2.35271M126.8127,130.41908c-12.89346,0-17.46754-12.38169-17.46754-22.98358,0-10.60643,4.57408-22.98812,17.46754-22.98812,17.4154,0,18.76949,17.59433,18.76949,22.98812,0,5.39151-1.35409,22.98358-18.76949,22.98358"/><path class="cls-2" d="M213.76533,57.286h-3.734a2.35559,2.35559,0,0,0-2.355,2.35271V86.945c-3.55961-6.07989-10.59285-9.8637-18.765-9.8637-15.74433,0-25.91372,11.91524-25.91372,30.35421,0,18.43443,10.16939,30.34514,25.91372,30.34514,7.4,0,14.81364-3.78155,18.765-9.31119v5.33716a2.359,2.359,0,0,0,2.355,2.355h3.734a2.35659,2.35659,0,0,0,2.35727-2.355V59.63868a2.35321,2.35321,0,0,0-2.35727-2.35271m-24.85394,73.13311c-12.89346,0-17.47207-12.38169-17.47207-22.98358,0-10.60643,4.57861-22.98812,17.47207-22.98812,17.4154,0,18.765,17.59433,18.765,22.98812,0,5.39151-1.3496,22.98358-18.765,22.98358"/><path class="cls-2" d="M258.20612,84.03683V80.30059a2.34681,2.34681,0,0,0-2.25534-2.35045l-.13593-.00453c-.35775-.0136-.7155-.02039-1.06648-.02039h-.00456a21.11192,21.11192,0,0,0-18.885,10.60868V81.00029a2.35609,2.35609,0,0,0-2.35948-2.35045h-3.73174a2.35225,2.35225,0,0,0-2.355,2.35045v52.80566a2.35611,2.35611,0,0,0,2.355,2.355h3.73174a2.36,2.36,0,0,0,2.35948-2.355V103.85481c.84009-10.303,8.564-17.49472,18.79672-17.49472.38726,0,.78122.01133,1.1843.0317l.85592.03851.25589-.02039a2.3813,2.3813,0,0,0,1.25451-2.37309"/><path class="cls-2" d="M307.29118,117.51406l-.00228-.01132a1.048,1.048,0,0,0-1.13676-.89216h-4.925c-1.336,0-2.01306.88311-2.4093,2.08324h-.01133c-1.97457,6.96074-7.77141,11.725-14.77743,11.725-12.89574,0-18.76956-11.913-18.76956-22.98586,0-11.07062,5.87382-22.98586,18.76956-22.98586,7.10111,0,11.85186,3.31961,14.17056,9.87276h.00905a3.07276,3.07276,0,0,0,2.68786,2.1942h4.9839a1.08533,1.08533,0,0,0,1.182-.89671.01671.01671,0,0,1,.00449-.01358,3.46263,3.46263,0,0,0-.10642-1.52168l-.00677-.00226c-2.41158-10.69926-10.78759-16.99879-22.9247-16.99879-8.32618,0-15.32087,3.13391-20.23691,9.05984-4.49707,5.42774-6.9743,12.98856-6.9743,21.29209s2.47723,15.86433,6.9743,21.29209c4.916,5.92591,11.91073,9.05531,20.23691,9.05531,11.65933,0,20.2754-7.08528,23.15793-18.7356l.00677-.00453a3.62821,3.62821,0,0,0,.09744-1.52621"/><path class="cls-3" d="M41.77995,133.6515a11.151,11.151,0,1,1,11.14986-11.14986A11.16136,11.16136,0,0,1,41.77995,133.6515"/><path class="cls-2" d="M61.09681,126.59791a5.59192,5.59192,0,1,0,5.593,5.59305,5.592,5.592,0,0,0-5.593-5.59305"/><path class="cls-2" d="M88.575,18.2494a6.62674,6.62674,0,1,0-6.62336-6.62559A6.626,6.626,0,0,0,88.575,18.2494"/><path class="cls-3" d="M19.1933,83.58461A41.70677,41.70677,0,0,0,39.6634,101.967a17.41083,17.41083,0,0,0,2.83049-9.82974A46.47165,46.47165,0,0,1,19.1933,83.58461"/><path class="cls-2" d="M17.28486,76.385A41.46648,41.46648,0,0,0,41.85351,87.6594,17.69183,17.69183,0,0,0,17.28486,76.385"/><path class="cls-2" d="M12.572,79.63144a17.682,17.682,0,0,0,12.21866,30.43119,17.88927,17.88927,0,0,0,11.94014-4.62389A46.03785,46.03785,0,0,1,12.572,79.63144"/><path class="cls-2" d="M43.91391,103.46916a42.13066,42.13066,0,0,0,18.371,1.15485A41.74118,41.74118,0,0,0,96.97544,56.877,41.8988,41.8988,0,0,0,92.184,42.96,46.14333,46.14333,0,0,1,53.36772,91.71471a46.35387,46.35387,0,0,1-6.46483.57062,21.79432,21.79432,0,0,1-2.989,11.18383"/><path class="cls-2" d="M46.20366,4.40692a42.19619,42.19619,0,0,0-6.58034.51855A41.82541,41.82541,0,0,0,9.722,66.58945,46.14716,46.14716,0,0,1,48.53823,17.83478,46.26628,46.26628,0,0,1,82.717,25.964a41.50243,41.50243,0,0,0-36.51335-21.557"/><path class="cls-3" d="M86.355,34.94023,86.28929,34.87A42.02661,42.02661,0,0,0,49.228,22.18718a41.73943,41.73943,0,0,0-34.69277,47.747c.14038.87859.31024,1.7617.50722,2.64028a21.98553,21.98553,0,0,1,6.31768-2.004,22.21878,22.21878,0,0,1,3.48262-.274,21.99107,21.99107,0,0,1,21.591,17.58528A41.74017,41.74017,0,0,0,87.36714,39.61621a42.9198,42.9198,0,0,0-1.019-4.67143l.00681-.00454"/><path class="cls-3" d="M112.44581,154.13519a10.117,10.117,0,0,0-8.52091,4.35217V145.83166a.848.848,0,0,0-.8469-.85141h-1.23637a.85185.85185,0,0,0-.85139.85141V179.9991a.8543.8543,0,0,0,.85139.84915H103.078a.85044.85044,0,0,0,.8469-.84915V166.76372c0-6.03461,3.32638-9.9339,8.4733-9.9339,4.24125,0,6.38789,2.23948,6.55774,6.82488V179.9991a.85237.85237,0,0,0,.84915.84915h1.23634a.85041.85041,0,0,0,.84687-.84915l.01361-15.185c0-2.91881,0-10.67889-9.4561-10.67889"/><path class="cls-3" d="M136.75812,154.13544a10.59122,10.59122,0,0,0-7.73064,3.11354c-2.52257,2.56328-3.93325,6.5622-3.87437,10.96872a13.86193,13.86193,0,0,0,3.57543,10.05843,10.96985,10.96985,0,0,0,8.02959,3.15657c6.31989,0,10.36633-3.33771,11.374-9.404l.00677-.20832a.74676.74676,0,0,0-.19017-.557.85894.85894,0,0,0-.64308-.27625h-1.22956a.8934.8934,0,0,0-.87409.72461l-.04754.20606c-.822,4.33858-3.88343,6.82262-8.39632,6.82262a7.78755,7.78755,0,0,1-5.76968-2.31195,11.4627,11.4627,0,0,1-2.89621-7.85519h20.19165l.0226-.52081c.21063-4.39518-.98273-8.19257-3.36487-10.68566a10.9599,10.9599,0,0,0-8.18348-3.23129m0,2.69462c5.32583,0,8.29446,4.46538,8.59562,9.053H128.14889c.57287-4.59445,3.62525-9.053,8.60923-9.053"/><path class="cls-3" d="M244.05463,171.37991a.81022.81022,0,0,0-.86276-.711H241.96a.84326.84326,0,0,0-.84459.76989l-.00905.12454a7.93725,7.93725,0,0,1-8.179,7.17813c-5.69954,0-9.10519-4.18687-9.10519-11.1997,0-5.32132,3.12944-10.71283,9.10519-10.71283,4.60121,0,7.64233,2.38667,7.93664,6.22481l.01133-.00226a.88006.88006,0,0,0,.83781.77895h1.23412a.8413.8413,0,0,0,.84238-.76762l.00449-.034-.00905-.2287c-.52084-5.42322-4.57861-8.66583-10.85773-8.66583-7.08984,0-12.03982,5.51607-12.03982,13.40747,0,6.7162,3.16565,13.8898,12.03982,13.8898,6.02551,0,10.27809-3.6253,11.09551-9.48781l.03621-.38721Z"/><path class="cls-3" d="M178.50241,144.9798h-1.23869a.85.85,0,0,0-.84915.85143v34.16742a.85091.85091,0,0,0,.84915.84915h1.23869a.85043.85043,0,0,0,.84687-.84915V145.83123a.84948.84948,0,0,0-.84687-.85143"/><path class="cls-3" d="M173.6156,178.01459l-.63631.08831a3.23035,3.23035,0,0,1-.46645.05887h-.077c-.04982-.00226-.11775-.00226-.20835-.00226-.95557,0-1.114-.62044-1.114-2.48178V161.21279c0-4.56275-3.31056-7.07849-9.31347-7.07849-6.4422,0-9.83651,2.85314-10.08335,8.496v.12227a1.15145,1.15145,0,0,0,.26722.8016.70447.70447,0,0,0,.53438.25362h1.23184a.89253.89253,0,0,0,.86946-.71555l.03856-.15624.01582-.09737c.21961-3.87437,2.74895-6.0097,7.12605-6.0097,5.3326,0,6.4241,3.45094,6.4241,4.38386,0,3.70681,0,4.09856-8.12467,4.66918-2.40253.197-9.70522.79933-9.70522,7.9435,0,4.97487,3.08638,7.60609,8.9195,7.60609a10.52873,10.52873,0,0,0,8.87866-4.19139c.09965,1.87039.77217,3.60944,3.888,3.60944a5.64891,5.64891,0,0,0,1.24767-.13813l.52533-.10642a.67556.67556,0,0,0,.57059-.78574v-1.04163a.77855.77855,0,0,0-.80838-.7631m-5.439-10.84192v3.58454c0,.08605-.09744,7.98425-8.81308,7.98425-3.7249,0-6.03912-1.88171-6.03912-4.916,0-3.18827,1.91342-4.75976,6.406-5.26245.9148-.12228,1.86131-.20153,2.78523-.28079,2.18285-.18115,4.27062-.36,5.661-1.10956"/><path class="cls-3" d="M193.84567,178.15974h-.23323c-.27172.00906-.53438.01359-.78571.01359-1.56921,0-2.432-.19021-2.97768-.65214-.62048-.52307-.9103-1.5262-.9103-3.15657V157.5832H193.454a.84947.84947,0,0,0,.84687-.85141v-1.23862a.8461.8461,0,0,0-.84687-.84915h-4.61938v-8.813a.85043.85043,0,0,0-.85143-.85141h-1.23634a.84613.84613,0,0,0-.84466.85141v8.813h-4.08493a.8504.8504,0,0,0-.84687.84915v1.23862a.85235.85235,0,0,0,.84687.85141h4.19135v16.761c-.077,2.2191.39852,3.83362,1.4583,4.92732,1.071,1.10729,2.66292,1.6213,5.00885,1.6213.40985,0,.8582-.01359,1.32693-.04529a.76031.76031,0,0,0,.85143-.74951V178.9319a.78028.78028,0,0,0-.80845-.77217"/><path class="cls-3" d="M208.209,154.13519a10.10416,10.10416,0,0,0-8.5187,4.35217V145.83166a.8509.8509,0,0,0-.85364-.85141h-1.23412a.84946.84946,0,0,0-.84687.85141V179.9991a.8519.8519,0,0,0,.84687.84915h1.23412a.85333.85333,0,0,0,.85364-.84915V166.76372c0-6.03461,3.32189-9.9339,8.46888-9.9339,4.24574,0,6.3901,2.23948,6.55767,6.82488V179.9991a.8553.8553,0,0,0,.84915.84915h1.23862a.85041.85041,0,0,0,.84687-.84915l.01582-15.185c0-2.91881,0-10.67889-9.45831-10.67889"/><path class="cls-3" d="M303.91221,157.36673a10.98248,10.98248,0,0,0-8.19025-3.23129,10.59739,10.59739,0,0,0-7.72843,3.11354c-2.5225,2.56328-3.92869,6.5622-3.86981,10.96872a13.84059,13.84059,0,0,0,3.57094,10.05843,10.96454,10.96454,0,0,0,8.02731,3.15657c6.29273,0,10.30745-3.33771,11.322-9.45158l.01354-.18568a.6889.6889,0,0,0-.16074-.5661.80979.80979,0,0,0-.625-.24229h-1.22956a.9113.9113,0,0,0-.88315.77895l-.01582.1336c-.81971,4.34989-3.888,6.84073-8.42127,6.84073a7.79816,7.79816,0,0,1-5.76519-2.30516,11.50618,11.50618,0,0,1-2.9007-7.862H307.2522l.02267-.52081c.21284-4.39518-.985-8.19257-3.36266-10.68566m-8.19025-.53668c5.33032,0,8.30123,4.46538,8.5979,9.053H287.11494c.57294-4.59445,3.6276-9.053,8.607-9.053"/><path class="cls-3" d="M269.25361,178.04426l-.6408.09058a3.241,3.241,0,0,1-.462.0566h-.07242c-.0566-.00453-.12231-.00453-.2174-.00453-.95329,0-1.11181-.61818-1.11181-2.484V161.24019c0-4.56275-3.306-7.074-9.31347-7.074-6.43992,0-9.82974,2.85088-10.08335,8.496V162.78a1.17023,1.17023,0,0,0,.26266.8016.73493.73493,0,0,0,.54122.25135h1.22728a.88384.88384,0,0,0,.87181-.70423l.04305-.15851.01582-.10189c.2174-3.87664,2.74446-6.0097,7.12149-6.0097,5.33716,0,6.42638,3.45094,6.42638,4.3816,0,3.70681,0,4.09856-8.12688,4.66918-2.398.197-9.70293.79707-9.70293,7.94349,0,4.98167,3.07954,7.61063,8.92172,7.61063a10.53573,10.53573,0,0,0,8.8741-4.19365c.10193,1.86812.77445,3.60944,3.888,3.60944a6.171,6.171,0,0,0,1.293-.11322l.43017-.13813a.77268.77268,0,0,0,.6182-.80838v-1.01445a.77141.77141,0,0,0-.80388-.76083m-5.43674-10.84192v3.58454c0,.07925-.10421,7.98425-8.81758,7.98425-3.72041,0-6.03463-1.8885-6.03463-4.91826,0-3.18826,1.91113-4.75975,6.40143-5.26018.91258-.12228,1.86587-.2038,2.78295-.27852,2.18292-.18568,4.2729-.35778,5.66783-1.11182"/><path class="cls-3" d="M283.70937,154.57856l-.25368.00228a10.28458,10.28458,0,0,0-8.91716,4.12346v-3.36942a.84944.84944,0,0,0-.84915-.84915H272.453a.84707.84707,0,0,0-.84466.84915v24.78378a.84757.84757,0,0,0,.84466.85141h1.23634a.84993.84993,0,0,0,.84915-.85141V166.25831c.22645-3.42829,1.03255-4.82088,2.63576-6.46484a7.98881,7.98881,0,0,1,5.60888-2.33911,7.62973,7.62973,0,0,1,.8582.04982l.18347.02489.03849-.00453c.21056-.00679.6974-.09963.6974-.86273v-1.23411a.86021.86021,0,0,0-.85136-.84915"/></svg>