<?xml version="1.0" encoding="utf-8"?>
<!-- Generator: Adobe Illustrator 15.0.0, SVG Export Plug-In . SVG Version: 6.00 Build 0)  -->
<!DOCTYPE svg PUBLIC "-//W3C//DTD SVG 1.1//EN" "http://www.w3.org/Graphics/SVG/1.1/DTD/svg11.dtd">
<svg version="1.1" id="Layer_1" xmlns="http://www.w3.org/2000/svg" xmlns:xlink="http://www.w3.org/1999/xlink" x="0px" y="0px"
	 width="384.028px" height="146.819px" viewBox="0 0 384.028 146.819" enable-background="new 0 0 384.028 146.819"
	 xml:space="preserve">
<g>
	<g>
		<path fill="#1E3378" d="M171.192,34.506h40.485c15.672,0,23.672,10.072,22.836,22.01c-0.676,9.701-5.713,15.922-13.398,20.894
			c9.813,5.472,13.885,13.061,13.258,22.012c-1.111,15.922-15.207,23.632-37.469,23.632c-7.46,0-22.384-0.997-31.721-2.612
			L171.192,34.506z M208.356,69.578c4.312-2.99,6.303-6.594,6.563-10.325c0.3-4.23-2.337-7.464-7.562-7.464h-17.975l-1.242,17.789
			H208.356z M186.92,86.986l-1.242,17.785c3.324,0.496,10.578,0.87,13.811,0.87c9.699,0,15.293-3.485,15.675-8.956
			c0.261-3.729-1.737-7.215-5.54-9.699H186.92z"/>
		<path fill="#1E3378" d="M262.043,34.506l-2.454,35.072h31.092l2.453-35.072h19.277l-6.105,87.303h-19.278l2.438-34.822h-31.094
			l-2.434,34.822h-19.4l6.104-87.303H262.043z"/>
		<path fill="#1E3378" d="M330.601,105.142l-5.892,16.667h-20.024l32.188-87.189l26.628-0.011l20.528,87.2h-20.021l-3.562-16.667
			H330.601z M349.19,50.92l-13.032,36.938h21.018L349.19,50.92z"/>
	</g>
	<g>
		<path fill="#1E3378" d="M103.478,0.288c-0.243-0.095-0.484-0.193-0.728-0.288l-4.715,14.156H25.531
			c-0.909,0.803-1.796,1.627-2.663,2.477L68.876,23.4H16.713c-0.579,0.718-1.156,1.438-1.708,2.177l31.878,4.682l-2.95,0.727H11.331
			C10.709,31.983,10.115,33,9.54,34.03l13.706,2.016L6.488,40.143c-1.835,4.121-3.312,8.435-4.393,12.902l57.438-16.468L0,72.838
			c0.251,10.244,2.527,19.98,6.451,28.826c4.613,10.397,11.489,19.56,20.009,26.872c0.17,0.147,0.337,0.297,0.508,0.439
			L71.76,77.191l5.331-27.852l1.423,0.179l-0.322,18.478l6.24,3.756l22.853,12.203l10.951,13.555l6.035,7.471l19.391-0.045
			c0.85-1.699,1.641-3.427,2.368-5.189l0.146-0.392l1.292-3.41c1.153-3.304,2.092-6.711,2.783-10.203L103.478,0.288z
			 M136.057,82.271l-4.654,10.269l-5.09-5.559l4.79-10.244l-19.39-26.178l8.148-1.631l-15.945-19.603l5.667-8.326l0.338-0.124
			l36.202,63.9L136.057,82.271z"/>
		<g>
			<polygon fill="#DA2037" points="111.261,97.51 64.796,97.51 59.549,104.997 116.339,104.997 			"/>
			<path fill="#DA2037" d="M53.951,112.986l-7.086,10.116l-1.469,2.1l-7.164,10.222l-0.707,1.01c0.63,0.368,1.257,0.743,1.898,1.094
				c6.361,3.485,13.28,6.076,20.583,7.629l16.423-27.097h6.2l-17.014,28.072c3.34,0.449,6.748,0.688,10.212,0.688
				c5.48,0,10.822-0.589,15.974-1.695l16.403-27.064h6.269l-15.185,25.059c4.513-1.471,8.842-3.346,12.941-5.591
				c1.218-0.667,2.408-1.374,3.582-2.104c4.716-2.931,9.081-6.361,13.033-10.222c0.702-0.688,1.384-1.39,2.058-2.1
				c2.971-3.136,5.682-6.511,8.085-10.116H53.951z"/>
		</g>
	</g>
</g>
</svg>
