<?xml version="1.0" encoding="UTF-8"?>
<svg width="116px" height="40px" viewBox="0 0 116 40" version="1.1" xmlns="http://www.w3.org/2000/svg" xmlns:xlink="http://www.w3.org/1999/xlink">
    <!-- Generator: Sketch 52.1 (67048) - http://www.bohemiancoding.com/sketch -->
    <title>Logo / Dark / Horizontal</title>
    <desc>Created with Sketch.</desc>
    <g id="Logos-/-Brand-/-Primary-H-Dark" stroke="none" stroke-width="1" fill="none" fill-rule="evenodd">
        <g id="PADI-horizontal-trap-on-light" fill-rule="nonzero">
            <path d="M20,0 C8.954305,-6.76353751e-16 1.3527075e-15,8.954305 0,20 C-1.3527075e-15,31.045695 8.954305,40 20,40 C31.045695,40 40,31.045695 40,20 C40,14.6956702 37.8928632,9.60859195 34.1421356,5.85786438 C30.3914081,2.10713681 25.3043298,3.24796525e-16 20,0" id="Shape" fill="#FFFFFF"></path>
            <path d="M8,25.32 C7.78148523,24.4573634 7.61452317,23.5824823 7.5,22.7 C7.60822431,22.7287666 7.7185762,22.7488306 7.83,22.76 L8.14,22.76 C8.37,23.23 9,23.44 10.55,23.76 C11.1523944,23.8930586 11.7414754,24.0804934 12.31,24.32 C12.8056417,24.5226095 13.3174454,24.6831753 13.84,24.8 C13.84,24.97 13.89,25.14 13.92,25.32 C13.9761892,25.4925209 13.9402209,25.6817958 13.8246647,25.8216796 C13.7091086,25.9615634 13.530026,26.0326133 13.35,26.01 L8.83,26.01 C8.41191374,26.0208049 8.04956471,25.7223998 7.98,25.31 L8,25.32 Z M22.48,7.64 L17.48,7.64 C16.9708048,7.67109516 16.5259744,7.99496291 16.34,8.47 L15.2,12.35 C15.1261038,12.5511771 15.1578104,12.7759887 15.284464,12.948881 C15.4111177,13.1217733 15.6159043,13.2197937 15.83,13.21 L24.18,13.21 C24.3923555,13.2163421 24.594017,13.1168928 24.7182582,12.9445582 C24.8424994,12.7722237 24.8731244,12.549469 24.8,12.35 L23.62,8.47 C23.4340256,7.99496291 22.9891952,7.67109516 22.48,7.64 Z M15.26,7.64 L12,7.64 C11.5129309,7.6736604 11.0727183,7.94226471 10.82,8.36 C10.7,8.53 10.6,8.71 10.49,8.89 C10.5788641,8.97762658 10.6531361,9.0789066 10.71,9.19 L10.85,9.48 L11.1,9.48 C11.58,9.48 12.1,8.48 12.1,8.48 C12.1,8.48 13.18,9.8 12.75,10.76 C12.5261186,11.3309745 11.9920448,11.7208094 11.38,11.76 L11.21,11.76 C11.0884387,11.8558169 10.9578201,11.9395468 10.82,12.01 C10.8127791,12.4137163 10.6876424,12.8065065 10.46,13.14 L13.46,13.14 C13.8969985,13.1131901 14.2657448,12.8052262 14.37,12.38 C14.6979846,10.9888679 15.1223422,9.62223603 15.64,8.29 C15.64,8.29 16.01,7.57 15.26,7.57 L15.26,7.64 Z M33.26,7.57 L30.57,7.57 C29.47,7.57 29.99,8.26 29.99,8.26 C30.9063379,9.51187696 31.6153903,10.9029703 32.09,12.38 C32.2028155,12.8371833 32.6193028,13.1537136 33.09,13.14 L36.86,13.14 C37.86,13.14 37.49,12.21 37.49,12.21 C36.9247306,10.7425655 36.1017977,9.3879435 35.06,8.21 C34.5315183,7.77899173 33.8608596,7.56138439 33.18,7.6 L33.26,7.57 Z M31.18,13.94 L26.65,13.94 C26.469974,13.9173867 26.2908914,13.9884366 26.1753353,14.1283204 C26.0597791,14.2682042 26.0238108,14.4574791 26.08,14.63 C26.2914405,15.8936986 26.4217073,17.1696449 26.47,18.45 C26.8850012,18.2497187 27.3392139,18.1438496 27.8,18.14 C28.1292052,18.1926435 28.4663658,18.1252114 28.75,17.95 C28.8618178,17.7592485 29.0245694,17.6034226 29.22,17.5 L29.22,17.37 C29.4066882,16.8380767 29.8724348,16.4531622 30.43,16.37 C30.5264169,16.3601728 30.6235831,16.3601728 30.72,16.37 C31.1917198,16.3906679 31.6397096,16.5826635 31.98,16.91 C32.1329769,17.0452938 32.2932146,17.1721486 32.46,17.29 C32.3586623,16.4116328 32.2050566,15.5400872 32,14.68 C31.9387676,14.262839 31.5711614,13.9601045 31.15,13.98 L31.18,13.94 Z M32,25.32 C32.2205269,24.4453287 32.380902,23.5565833 32.48,22.66 C32.3031513,21.9030957 31.9187577,21.2104948 31.37,20.66 L31.17,20.48 C30.5604508,20.3526518 29.9276997,20.3941437 29.34,20.6 C28.2398216,21.1025585 27.2270457,21.7777425 26.34,22.6 C26.34,22.9 26.34,23.2 26.26,23.5 C27.0520509,23.5911311 27.8015188,23.9068792 28.42,24.41 C29.3468243,25.1500853 30.4429828,25.6483392 31.61,25.86 C31.7959524,25.731261 31.9221339,25.5329757 31.96,25.31 L32,25.32 Z M24.68,32.31 L28,32.31 C28.4881368,32.2797115 28.9297918,32.0102271 29.18,31.59 C29.9782471,30.4253748 30.6487781,29.1781871 31.18,27.87 C29.9571481,27.7188156 28.755853,27.4268807 27.6,27 L27.47,27 C26.9103678,27.1431869 26.3372009,27.2269832 25.76,27.25 C25.7262856,27.3205754 25.6994936,27.3942534 25.68,27.47 C25.344037,28.8600804 24.9164357,30.2264 24.4,31.56 C24.4,31.56 24.03,32.28 24.78,32.28 L24.68,32.31 Z M10.85,31.56 C11.1027183,31.9777353 11.5429309,32.2463396 12.03,32.28 L15.3,32.28 C16.05,32.28 15.68,31.56 15.68,31.56 C15.1623422,30.227764 14.7379846,28.8611321 14.41,27.47 C14.3057448,27.0447738 13.9369985,26.7368099 13.5,26.71 L9.16,26.71 C8.35,26.71 8.7,27.48 8.7,27.48 C9.24430846,28.9165205 9.9523099,30.285547 10.81,31.56 L10.85,31.56 Z M33.34,14 C32.68,14 32.85,14.69 32.85,14.69 C33.1167578,15.7774173 33.2973179,16.8841837 33.39,18 L34.39,18.77 C34.700199,19.0138707 34.988008,19.2849465 35.25,19.58 L38.35,19.58 C38.5819759,19.5919367 38.8069439,19.4985156 38.9622257,19.3257646 C39.1175074,19.1530137 39.1865068,18.9193961 39.15,18.69 C39.0792258,17.3862596 38.8611723,16.0947122 38.5,14.84 C38.3480968,14.3209195 37.860206,13.9736075 37.32,14 L33.34,14 Z M13.34,14 L9.64,14 L9.47,14.11 C9.01474733,14.3467913 8.5127611,14.4799713 8,14.5 C7.97088327,14.5565662 7.95064636,14.617277 7.94,14.68 C7.76356523,15.4457757 7.62671703,16.2201362 7.53,17 L7.53,17.11 C7.60519313,17.4430143 7.76737468,17.750124 8,18 L8.23,18.26 C8.34380577,18.0815127 8.48958148,17.9255666 8.66,17.8 C8.54267485,17.6539689 8.46055302,17.4828817 8.42,17.3 C8.36707661,17.007222 8.43175598,16.705385 8.6,16.46 L9.19,15.61 C9.41962949,15.2851529 9.79218931,15.0914218 10.19,15.09 C10.4072261,15.0871806 10.621265,15.1424165 10.81,15.25 L10.96,15.09 C11.3211103,14.7994242 11.7772661,14.6533118 12.24,14.68 C12.712886,14.6824185 13.1810717,14.77402 13.62,14.95 L13.84,15.06 L13.9,14.67 C13.9561892,14.4974791 13.9202209,14.3082042 13.8046647,14.1683204 C13.6891086,14.0284366 13.510026,13.9573867 13.33,13.98 L13.34,14 Z M25.33,14.86 C25.2689766,14.3550349 24.8386257,13.9763261 24.33,13.98 L15.67,13.98 C15.1613743,13.9763261 14.7310234,14.3550349 14.67,14.86 L14.59,15.72 C14.8341928,16.0144554 15.0177163,16.3543137 15.13,16.72 C15.4061639,16.6107472 15.7045719,16.5695875 16,16.6 C16.3043301,16.6041378 16.6055702,16.661678 16.89,16.77 C17.29,16.91 22.76,19.26 23.5,19.58 L24.9,19.58 C25.0330104,19.5787763 25.1636166,19.5444063 25.28,19.48 L25.34,19.41 C25.4288537,19.2965051 25.5257714,19.1895614 25.63,19.09 C25.6823126,18.9631037 25.7094822,18.8272553 25.71,18.69 L25.33,14.86 Z M30.87,13.21 C31.68,13.21 31.33,12.44 31.33,12.44 C30.7856915,11.0034795 30.0776901,9.63445303 29.22,8.36 C28.9620619,7.92832151 28.5025776,7.65715041 28,7.64 L24.74,7.64 C23.99,7.64 24.36,8.36 24.36,8.36 C24.8764357,9.69359996 25.304037,11.0599196 25.64,12.45 C25.7431277,12.8718962 26.1067909,13.1789896 26.54,13.21 L30.87,13.21 Z M21.67,24.89 C21.7564927,25.0907086 21.8267186,25.2980424 21.88,25.51 C22.2351077,25.2628296 22.65734,25.1302277 23.09,25.13 C23.15,25.13 23.78,25.13 23.95,25.18 C24.82,25.25 24.95,24.74 24.95,24.74 C25.0608507,24.4467643 25.2234277,24.1758027 25.43,23.94 L25.49,23.31 C24.3479923,24.0970327 23.0533577,24.6353281 21.69,24.89 L21.67,24.89 Z M15.69,26.02 L17,26.02 C16.86,25.83 16.74,25.67 16.67,25.56 L16.31,25 C15.76,25 15.19,24.94 14.69,24.9 L14.69,25.1 C14.7510234,25.6049651 15.1813743,25.9836739 15.69,25.98 L15.69,26.02 Z M17.54,32.32 L22.54,32.32 C23.0491952,32.2889048 23.4940256,31.9650371 23.68,31.49 L24.82,27.75 C23.9324308,28.3371028 22.9468642,28.7604561 21.91,29 C21.5811407,29.0686015 21.2459317,29.1021224 20.91,29.1 C19.9795126,29.1270958 19.0891641,28.7207126 18.5,28 L17.59,26.79 L15.83,26.79 C15.6159043,26.7802063 15.4111177,26.8782267 15.284464,27.051119 C15.1578104,27.2240113 15.1261038,27.4488229 15.2,27.65 L16.38,31.53 C16.5659744,32.0050371 17.0108048,32.3289048 17.52,32.36 L17.54,32.32 Z M16.52,33.79 C16.3614391,33.3631492 15.9731988,33.0642042 15.52,33.02 L12.69,33.02 C11.69,33.02 12.54,33.82 12.54,33.82 C14.1236154,35.7313035 16.0800807,37.2998782 18.29,38.43 C19.12,38.79 19.22,38.78 18.88,38.25 C18.4,37.51 17.08,34.94 16.56,33.79 L16.52,33.79 Z M22.15,33 L17.85,33 C17.38,33 17.18,33.37 17.39,33.82 C17.9304762,35.1661809 18.5516024,36.4785606 19.25,37.75 C19.59,38.33 19.67,38.4 20,38.4 C20.33,38.4 20.41,38.33 20.75,37.75 C21.4529214,36.4808759 22.0741824,35.1682114 22.61,33.82 C22.82,33.37 22.61,33 22.15,33 Z M18.05,38.76 C15.5570025,37.6134882 13.3656609,35.9015026 11.65,33.76 C11.2290282,33.2890348 10.6315334,33.013825 10,33 L7.07,33 C7.07,33 5.97,33 6.62,33.76 C9.36973168,36.4235237 12.851528,38.2062034 16.62,38.88 C17.62,39.05 19.16,39.25 18.09,38.76 L18.05,38.76 Z M27.5,33.76 C27.5,33.76 28.33,32.95 27.35,32.96 L24.48,32.96 C24.0268012,33.0042042 23.6385609,33.3031492 23.48,33.73 C22.96,34.88 21.64,37.45 21.16,38.19 C20.82,38.72 20.92,38.73 21.75,38.37 C23.9599193,37.2398782 25.9163846,35.6713035 27.5,33.76 Z M38.35,20.43 L36,20.43 C36.6968623,21.2557978 37.2973993,22.1582809 37.79,23.12 L37.92,23.41 C37.9710283,23.5301864 37.9685764,23.6663959 37.9132557,23.784668 C37.8579349,23.90294 37.7549581,23.9921298 37.63,24.03 L37.33,24.12 C37.0204956,24.2526575 36.7388782,24.4426644 36.5,24.68 C36.1692595,24.9981864 35.7289378,25.177179 35.27,25.18 C34.9231184,25.1741564 34.5817494,25.0922279 34.27,24.94 C34.014945,24.902973 33.757712,24.8829289 33.5,24.88 L33,24.88 C33,25.04 32.93,25.19 32.9,25.34 C32.87,25.49 32.73,26.03 33.39,26.03 L37.39,26.03 C37.9330386,26.0552084 38.4219015,25.7030614 38.57,25.18 C38.930341,23.9250988 39.1483785,22.6336461 39.22,21.33 C39.2565068,21.1006039 39.1875074,20.8669863 39.0322257,20.6942354 C38.8769439,20.5214844 38.6519759,20.4280633 38.42,20.44 L38.35,20.43 Z M6.79,32.36 L9.43,32.36 C10.53,32.36 10.01,31.67 10.01,31.67 C9.09366215,30.418123 8.38460969,29.0270297 7.91,27.55 C7.79718447,27.0928167 7.38069718,26.7762864 6.91,26.79 L3.11,26.79 C2.11,26.79 2.48,27.72 2.48,27.72 C3.04526938,29.1874345 3.86820225,30.5420565 4.91,31.72 C5.43848168,32.1510083 6.10914036,32.3686156 6.79,32.33 L6.79,32.36 Z M32.93,33 L30,33 C29.370444,33.0191252 28.7768447,33.2978273 28.36,33.77 C26.6443391,35.9115026 24.4529975,37.6234882 21.96,38.77 C20.89,39.26 22.42,39.06 23.43,38.89 C27.198472,38.2162034 30.6802683,36.4335237 33.43,33.77 C34,33 32.93,33 32.93,33 Z M36.93,26.77 L36.25,26.77 C36.3504442,26.9246304 36.4026555,27.1056293 36.4,27.29 C36.4,28.18 35.4,28.18 34.61,28.18 C33.7107029,28.1695804 32.812668,28.1094889 31.92,28 C31.4655022,29.3117625 30.8184224,30.5486286 30,31.67 C30,31.67 29.48,32.36 30.58,32.36 L33.22,32.36 C33.9008596,32.3986156 34.5715183,32.1810083 35.1,31.75 C36.1417977,30.5720565 36.9647306,29.2174345 37.53,27.75 C37.53,27.75 37.9,26.82 36.9,26.82 L36.93,26.77 Z M23.44,6.21 C23.5985609,6.63685083 23.9868012,6.93579583 24.44,6.98 L27.27,6.98 C28.27,6.98 27.42,6.18 27.42,6.18 C25.8363846,4.26869654 23.8799193,2.7001218 21.67,1.57 C20.84,1.21 20.74,1.22 21.08,1.75 C21.56,2.49 22.88,5.06 23.4,6.21 L23.44,6.21 Z M6.66,26 C7.32,26 7.15,25.31 7.15,25.31 C6.90470251,24.3001653 6.73093801,23.2742864 6.63,22.24 C6.07507754,21.7801878 5.71725319,21.1253692 5.63,20.41 L1.65,20.41 C1.41912902,20.4017466 1.19647664,20.4962592 1.04204012,20.6680698 C0.88760361,20.8398804 0.817272996,21.0713114 0.85,21.3 C0.921621522,22.6036461 1.13965899,23.8950988 1.5,25.15 C1.64809853,25.6730614 2.13696142,26.0252084 2.68,26 L6.66,26 Z M17.85,7 L22.15,7 C22.62,7 22.82,6.63 22.61,6.18 C22.0762757,4.83087935 21.4549517,3.51808175 20.75,2.25 C20.41,1.67 20.33,1.6 20,1.6 C19.67,1.6 19.59,1.67 19.25,2.25 C18.5495635,3.52039714 17.9283775,4.83290316 17.39,6.18 C17.18,6.63 17.39,7 17.85,7 Z M22,1.22 C24.4929975,2.36651179 26.6843391,4.07849737 28.4,6.22 C28.8056204,6.68604698 29.3830128,6.96752578 30,7 L32.94,7 C32.94,7 34.05,7 33.39,6.24 C30.6427816,3.57296792 27.1598491,1.78970651 23.39,1.12 C22.39,0.95 20.85,0.75 21.92,1.24 L22,1.22 Z M12.51,6.24 C12.51,6.24 11.68,7.04 12.66,7.04 L15.49,7.04 C15.9431988,6.99579583 16.3314391,6.69685083 16.49,6.27 C17.01,5.12 18.33,2.55 18.81,1.81 C19.15,1.28 19.05,1.27 18.22,1.63 C16.0100807,2.7601218 14.0536154,4.32869654 12.47,6.24 L12.51,6.24 Z M1.65,19.57 L5.48,19.57 C5.4317493,19.0659622 5.26745974,18.5799389 5,18.15 C4.47,17.15 4.47,16.6 4.17,16.15 L4,15.77 C3.76546978,15.2589565 3.76546978,14.6710435 4,14.16 L4,14 L2.68,14 C2.13696142,13.9747916 1.64809853,14.3269386 1.5,14.85 C1.13882768,16.1047122 0.920774223,17.3962596 0.85,18.7 C0.817272996,18.9286886 0.88760361,19.1601196 1.04204012,19.3319302 C1.19647664,19.5037408 1.41912902,19.5982534 1.65,19.59 L1.65,19.57 Z M7.07,7 L10,7 C10.629556,6.98087477 11.2231553,6.70217267 11.64,6.23 C13.3556609,4.08849737 15.5470025,2.37651179 18.04,1.23 C19.11,0.74 17.58,0.94 16.57,1.11 C12.8001509,1.77970651 9.31721844,3.56296792 6.57,6.23 C6,7 7.07,7 7.07,7 Z M3.07,13.23 L4.44,13.23 L4.44,13.12 C4.48774374,12.7755512 4.58193368,12.4391585 4.72,12.12 L4.64,11.87 C4.43137094,11.122698 4.62431615,10.3206512 5.15,9.75 C5.54569667,9.28664288 6.13103995,9.02894458 6.74,9.05 C7.21,9.05 7.74,9.35 8.25,9.32 C8.33084474,9.32256444 8.41071031,9.30172995 8.48,9.26 C8.78212369,8.86564456 9.23530251,8.61548985 9.73,8.57 L9.79,8.57 L10,8.33 C10,8.33 10.52,7.64 9.42,7.64 L6.79,7.64 C6.10914036,7.60138439 5.43848168,7.81899173 4.91,8.25 C3.86820225,9.4279435 3.04526938,10.7825655 2.48,12.25 C2.48,12.25 2.11,13.18 3.11,13.18 L3.07,13.23 Z" id="Shape" fill="#0072D3"></path>
            <path d="M4.61,15.41 C4.45748768,15.0941117 4.45748768,14.7258883 4.61,14.41 C4.84,13.86 5.09,13.83 5.2,13.2 C5.24554267,12.3085644 5.90853201,11.5705196 6.79,11.43 C8,11.21 8.91,13 10,11.86 C10.0716883,12.5286477 9.69837252,13.1657192 9.08,13.43 C8.38043927,13.828519 7.53176515,13.8657416 6.8,13.53 C6.47,13.4 5.87,12.88 5.67,13.53 C5.47,14.18 6.67,13.96 6.45,15.05 C5.83087492,14.6644736 5.02081433,14.8066651 4.57,15.38 M8.51,11.14 C8.83599913,10.9030374 9.08613578,10.5764702 9.23,10.2 C9.53,9.52 9.99,9.5 9.99,9.5 C9.8,9.12 9.39,9.36 8.99,9.76 C8.59,10.16 7.86,10 7.55,10 C6.93857355,9.73527557 6.22848299,9.85689329 5.74,10.31 C5.38973167,10.681056 5.25055412,11.2039122 5.37,11.7 C6.24745483,10.9373577 7.48653525,10.7503267 8.55,11.22 M10.73,11.3 C11.18,10.93 11.73,11.35 12.04,10.54 C12.1727594,10.265194 12.1727594,9.94480599 12.04,9.67 C11.57,10.38 11.25,10.33 10.54,10.24 C9.83,10.15 9.77,10.46 9.43,10.92 C9.28132456,11.1567543 9.07926098,11.3553931 8.84,11.5 C9.24,11.86 10.27,11.66 10.73,11.3 M5.51,15.42 C5.12022262,15.6599696 4.9431311,16.1339475 5.08006213,16.5707103 C5.21699316,17.007473 5.63298684,17.2955107 6.09,17.27 C6.56532299,17.0877092 6.80914992,16.5601564 6.64,16.08 C6.50801562,15.5873782 6.00391718,15.292949 5.51,15.42 M6.3,20.24 C6.38862312,21.1145247 7.03785359,21.8286783 7.9,22 C8.58,22.06 8.96,21.74 8.9,20.88 C8.84,20.02 7.9,19.1 7.39,18.46 C7.07640902,18.1106919 6.86532385,17.6816008 6.78,17.22 C6.50115527,17.6452033 5.95770886,17.8095011 5.49,17.61 C6.01663602,18.3764817 6.28626041,19.2904033 6.26,20.22 M9.57,18.22 C9.21811785,18.22 8.90088428,18.4319687 8.76622481,18.7570654 C8.63156534,19.0821621 8.70599884,19.4563646 8.9548171,19.7051829 C9.20363536,19.9540012 9.57783787,20.0284347 9.90293459,19.8937752 C10.2280313,19.7591157 10.44,19.4418822 10.44,19.09 C10.44,18.6095123 10.0504877,18.22 9.57,18.22 M11.79,18.53 L12.3,17.65 C12.4346425,17.4166519 12.3645664,17.1188284 12.14,16.97 L10.43,15.9 C10.2232466,15.7776527 9.95870515,15.8196434 9.8,16 L9.22,16.84 C9.16262312,16.9190104 9.13980282,17.0179388 9.15677227,17.114099 C9.17374171,17.2102592 9.22904502,17.2954011 9.31,17.35 L11.31,18.63 C11.3962982,18.6876251 11.5028287,18.7063625 11.6036104,18.6816424 C11.7043921,18.6569224 11.7901612,18.5910172 11.84,18.5 M10.7,19.88 C10.5708747,20.0016836 10.4061541,20.0787869 10.23,20.1 C11.51,20.53 10.8,20.1 12,20.02 C13.1187065,20.1358514 14.1498732,19.4041937 14.41,18.31 C14.813664,17.2837983 14.38349,16.1180268 13.41,15.6 C12.8218058,15.3040039 12.1281942,15.3040039 11.54,15.6 C11.4483576,15.6548269 11.3976412,15.7585165 11.4106207,15.8645158 C11.4236003,15.9705152 11.4978365,16.0589044 11.6,16.09 C11.6,16.09 12.28,16.52 12.7,16.84 C12.9451857,17.0035541 13.0413429,17.3171104 12.93,17.59 C12.93,17.59 12.44,18.47 12.15,18.88 C11.86,19.29 11.15,19.19 11.15,19.19 L10.7,19.88 M10.7,23 C12.5,23.38 13.05,24 14.7,24.15 C16.35,24.3 18.82,24.32 18.82,24.32 C18.7372091,23.6564855 18.6937998,22.9886489 18.69,22.32 C16.88,22.02 16.19,21.92 15.61,21.21 C15.03,20.5 15.73,19.46 15.73,19.46 C15.4464172,19.1811555 15.0675762,19.0203267 14.67,19.01 C14.1416315,19.8863841 13.2029822,20.4329871 12.18,20.46 C11.9110308,20.3851885 11.6224686,20.448897 11.41,20.63 C11.16,20.81 10.87,20.77 10.19,20.5 C9.51,20.23 9.46,20.67 9.46,20.67 C9.37,22.17 8.99,22.04 8.81,22.22 C8.63,22.4 8.93,22.61 10.67,22.97 M20.91,20.2 C21.5957671,20.7321318 22.4878072,20.9201238 23.33,20.71 C23.3978975,20.6238334 23.4169232,20.5088918 23.3804118,20.4054429 C23.3439005,20.301994 23.2569417,20.2244587 23.15,20.2 C23.15,20.2 16.95,17.54 16.56,17.4 C16.1107662,17.1842171 15.5774204,17.2465056 15.19,17.56 C14.9428806,17.8305225 14.8292316,18.1971323 14.88,18.56 C15.93,18.75 16.18,19.27 16.18,19.27 C17.8132945,19.1573277 19.4468715,19.4854246 20.91,20.22 M19.14,22 C19.14,22.29 19.29,24.83 19.29,24.83 C19.606479,25.0362634 19.9970273,25.0946632 20.36,24.99 C20.7539492,23.6943849 20.936292,22.3436977 20.9,20.99 C20.72,20.47 20.45,20.36 19.06,20.05 C18.2012053,19.8125956 17.3098513,19.7146818 16.42,19.76 C16.0280518,19.921787 15.821073,20.3529929 15.94,20.76 C16.06,21.3 16.82,21.56 16.82,21.56 C17.5824704,21.7735914 18.3572368,21.9405669 19.14,22.06 M20,26.76 C20.2153455,26.7437388 20.4073551,26.6183085 20.508772,26.4276447 C20.610189,26.2369808 20.6068784,26.0076569 20.5,25.82 C20.2829065,25.4499534 19.8408476,25.276435 19.43,25.4 C19.1,25.5 19.03,25.92 19.03,25.92 C18.84,26.63 19.53,26.82 20.03,26.76 M21.47,21.09 C21.4438402,22.1487958 21.2859593,23.2002157 21,24.22 C22.6711438,24.031609 24.2534536,23.3688433 25.56,22.31 C27.85,20.51 28.24,20.24 29.09,19.93 C29.659788,19.7117512 30.2743205,19.6362221 30.88,19.71 C31.28,19.71 31.63,19.93 31.8,19.63 C31.97,19.33 30.92,18.45 30.29,18.26 C29.66,18.07 29.49,18.16 29.37,18.41 C28.9715085,18.7900071 28.428403,18.9795472 27.88,18.93 C27.1064972,18.9192678 26.3702639,19.2616163 25.88,19.86 C24.712179,21.0454796 22.9989461,21.5148063 21.39,21.09 M32.39,19.51 C32.52,19.92 31.89,20.13 31.89,20.13 C33.39,21.44 33.54,24.13 33.54,24.13 C33.8755963,24.1240533 34.2108585,24.1542269 34.54,24.22 C34.9854932,24.5432636 35.5975833,24.505532 36,24.13 C36.3152395,23.8145984 36.6934766,23.5692555 37.11,23.41 C36.3006851,21.8997217 35.2501978,20.5317238 34,19.36 C33.21,18.78 32.12,17.89 31.77,17.63 C31.42,17.37 31.15,17.04 30.65,17.13 C30.3653938,17.1713131 30.1248631,17.3622105 30.02,17.63 C31.0028954,17.9842933 31.8471502,18.6428822 32.43,19.51 M19,27.44 C19.634828,28.296733 20.7508785,28.6444878 21.76,28.3 C23.66,27.91 24.96,26.55 25.63,26.58 C26.1800909,26.5709764 26.7272,26.4971334 27.26,26.36 C26.81,25.36 25.26,25.27 25.26,25.27 C24.91,25.81 24.26,25.85 23.15,25.79 C22.5830455,25.695605 22.0159967,25.9573198 21.72,26.45 C21.72,26.45 21.38,26.45 21.25,25.85 C21.1930831,25.5364133 21.022096,25.2549969 20.77,25.06 C20.6692499,25.1223865 20.6004202,25.2253132 20.5812495,25.342254 C20.5620789,25.4591948 20.5944427,25.5787106 20.67,25.67 C20.8556136,25.9527588 20.8857125,26.3101822 20.75,26.62 C20.572874,26.8888641 20.2951356,27.0752729 19.9792077,27.1373302 C19.6632799,27.1993874 19.3356664,27.131887 19.07,26.95 C18.19,26.41 18.81,25.12 18.81,25.12 L17.29,25.12 C17.29,25.12 18.79,27.2 19,27.43 M27.74,26.3 C30.37,27.42 35.62,27.63 35.62,27.3 C35.62,26.97 35.3,27.06 35.3,27.06 C30.55,26.88 28.83,25.66 28.01,25 C27.4642511,24.580493 26.8325118,24.2868195 26.16,24.14 C25.7,24.2 25.51,24.77 25.51,24.77 C26.4653477,24.8670565 27.3056472,25.4435849 27.74,26.3" id="Shape" fill="#F23D4E"></path>
            <path d="M73.79,7.64 L82.25,32.35 L58.69,32.35 L63.45,17.59 L69.62,17.59 L66.75,26.48 L74,26.48 L67.66,7.64 L73.79,7.64 Z M94.87,7.64 L83.87,7.64 L83.87,13.51 L91.56,13.51 C93.8679357,13.5296496 95.9900733,14.7790756 97.1270241,16.7876314 C98.2639749,18.7961872 98.243009,21.2587252 97.0720241,23.2476314 C95.9010392,25.2365375 93.7579357,26.4496496 91.45,26.43 L89.74,26.43 L89.74,17.59 L83.87,17.59 L83.87,32.35 L94.87,32.35 C100.52,31.84 104.59,26.05 104.59,20.02 C104.59,13.99 100.09,8.15 94.87,7.64 Z M62,15.43 C61.8889997,11.1629212 58.4474739,7.73459826 54.18,7.64 L45,7.64 L45,13.51 L53.36,13.51 C54.411961,13.5262147 55.2592787,14.3779687 55.27,15.43 C55.2780434,16.5650638 54.4023284,17.510836 53.27,17.59 L45,17.59 L45,32.35 L50.87,32.35 L50.87,23.35 L54.18,23.35 C58.4682227,23.2124012 61.8970372,19.7396275 61.98,15.45 L62,15.43 Z M111.92,7.66 L106.05,7.66 L106.05,32.35 L111.92,32.35 L111.92,7.66 Z" id="Shape" fill="#000000"></path>
        </g>
        <path d="M113.072,8.923 C113.072,8.29 113.588,7.807 114.203,7.807 C114.815,7.807 115.328,8.29 115.328,8.923 C115.328,9.568 114.815,10.051 114.203,10.051 C113.588,10.051 113.072,9.568 113.072,8.923 Z M113.276,8.923 C113.276,9.472 113.678,9.886 114.203,9.886 C114.722,9.886 115.124,9.472 115.124,8.923 C115.124,8.386 114.722,7.972 114.203,7.972 C113.678,7.972 113.276,8.386 113.276,8.923 Z M113.765,9.583 L113.765,8.272 L114.272,8.272 C114.584,8.272 114.731,8.395 114.731,8.647 C114.731,8.884 114.581,8.983 114.386,9.004 L114.761,9.583 L114.542,9.583 L114.185,9.019 L113.969,9.019 L113.969,9.583 L113.765,9.583 Z M113.969,8.437 L113.969,8.854 L114.182,8.854 C114.362,8.854 114.527,8.845 114.527,8.638 C114.527,8.464 114.377,8.437 114.239,8.437 L113.969,8.437 Z" id="®" fill="#000000"></path>
    </g>
</svg>
