<svg width="40" height="40" xmlns="http://www.w3.org/2000/svg"><defs><radialGradient cx="14.931%" cy="15.289%" fx="14.931%" fy="15.289%" r="99.486%" id="a"><stop stop-color="#FFF" stop-opacity=".1" offset="0%"/><stop stop-color="#FFF" stop-opacity="0" offset="100%"/></radialGradient></defs><g fill="none" fill-rule="evenodd"><path d="M-4-4h48v48H-4z"/><g fill-rule="nonzero"><circle fill="#FDD835" cx="20" cy="20" r="20"/><path d="M20 .25c11 0 19.93 8.89 20 19.88v-.12c0-11.05-8.95-20-20-20S0 8.95 0 20v.12C.07 9.14 9 .25 20 .25z" fill-opacity=".1" fill="#FFF"/><path d="M40 19.88c-.07 10.98-9 19.87-20 19.87S.07 30.86 0 19.88V20c0 11.05 8.95 20 20 20s20-8.95 20-20v-.12z" fill-opacity=".1" fill="#BF360C"/><circle fill="url(#a)" cx="20" cy="20" r="20"/></g></g></svg>