<svg xmlns="http://www.w3.org/2000/svg" viewBox="0 0 48 48"><rect width="2" height="34" x="3" y="10" fill="#424242"></rect><path fill="#e0e0e0" d="M24,17h-1.192c-1.853,0-3.686,0.376-5.389,1.106l0,0c-2.836,1.215-6.032,1.289-8.921,0.206L5,17l-2-1	V4h1.062c0.62,0,1.235,0.112,1.816,0.329l2.62,0.983c2.889,1.083,6.085,1.01,8.921-0.206l0,0C19.122,4.376,20.955,4,22.808,4H24V17z"></path><path fill="#2196f3" d="M38,34H26h-1h-7L5.461,30.331c-1.787-0.687-3.755,0.438-4.07,2.326v0	c-0.229,1.375,0.511,2.729,1.792,3.278L16,41l9,0.692V44h21v-2C46,37.582,42.418,34,38,34z"></path><polygon fill="#ff9800" points="31,30 31,34 35,41 38,34 38,30"></polygon><circle cx="27.5" cy="25.5" r="1.5" fill="#ffa726"></circle><circle cx="41.5" cy="25.5" r="1.5" fill="#ffa726"></circle><path fill="#ffb74d" d="M34.5,33L34.5,33c-3.59,0-6.5-2.91-6.5-6.5V20l9-2l4,2v6.5C41,30.09,38.09,33,34.5,33z"></path><path fill="#424242" d="M37,16l-1-1h-1c-4.418,0-8,3.582-8,8v1l2,1l0-3l8-3l3,3v3l2-1v-2C42,19.239,39.761,16,37,16z"></path><path fill="#ffb74d" d="M8.15,31.118l-2.689-0.787c-1.787-0.687-3.755,0.438-4.07,2.326v0	c-0.229,1.375,0.511,2.729,1.792,3.278l3.297,1.303L8.15,31.118z"></path></svg>