<svg id="Layer_1" enable-background="new 0 0 512 512" viewBox="0 0 512 512" xmlns="http://www.w3.org/2000/svg"><g><g><path d="m437.333 32h-362.666c-41.174 0-74.667 33.493-74.667 74.667v213.333c0 36.672 26.581 67.264 61.483 73.493-16.32 26.496-34.901 51.179-35.115 51.477-.064.085-.149.192-.213.299-3.115 3.819-4.821 8.533-4.821 13.397 0 11.755 9.579 21.333 21.333 21.333 2.923 0 5.845-.683 8.725-2.005 27.051-7.68 112.832-34.901 163.947-83.328h221.995c41.173.001 74.666-33.493 74.666-74.666v-213.333c0-41.174-33.493-74.667-74.667-74.667z"/></g></g><g/><g/><g/><g/><g/><g/><g/><g/><g/><g/><g/><g/><g/><g/><g/></svg>