<svg xmlns="http://www.w3.org/2000/svg" viewBox="0 0 32 32"><defs><style>.a{fill:#669df6}.b{fill:#4285f4}</style></defs><circle class="a" cx="24" cy="12" r="3"/><path class="a" d="M24 16a11.47 11.47 0 00-2.74.39 10.86 10.86 0 00-1.26.4c-1.63.61-3 1.59-3 2.94V22h14v-2.27c0-2.48-4.66-3.73-7-3.73z"/><circle class="a" cx="16" cy="12" r="3"/><path class="a" d="M16 16c-2.34 0-7 1.25-7 3.73V22h14v-2.27c0-2.48-4.66-3.73-7-3.73z"/><circle class="a" cx="8" cy="12" r="3"/><path class="a" d="M8 16c-2.34 0-7 1.25-7 3.73V22h14v-2.27C15 17.25 10.34 16 8 16z"/><path class="b" d="M24 19.51V22h-1v-2.45c-.13-1.48-1.94-2.37-3-2.76.41-.15.7-.25 1.14-.37 1.8.81 2.75 1.77 2.86 3.09zM16 19.51V22h-1v-2.45c-.13-1.48-1.93-2.37-3-2.76.42-.15.71-.25 1.14-.37 1.8.81 2.74 1.77 2.86 3.09z"/></svg>