<svg xmlns="http://www.w3.org/2000/svg" id="Layer_1" x="0" y="0" version="1.1" viewBox="0 0 48 48" xml:space="preserve"><path fill="#90caf9" d="M38.5,22.2c-2.6-0.1-4.3,1.6-4.5,3.8c0,0,1-1.9,3.1-1.8c1.7,0.1,2.9,1.5,2.8,3.2c0,0.8-0.5,1.9-1.5,2.4	c-3.2,1.8-10.7,0.9-10.7,0.9s3.9,1.2,7.9,1.4c5,0.3,7.1-1.8,7.3-4.6C43.1,24.7,41,22.3,38.5,22.2z"></path><path fill="#64b5f6" d="M29.3,32.6c0,0,8.6,3.2,8.6,5.9c0,1.1-0.9,1.7-1.9,1.6C34.5,40,33.9,39,33.9,39s0.4,2,2.8,2.2	c1.7,0.1,3.2-1.1,3.2-2.8C39.9,34.9,29.3,32.6,29.3,32.6z"></path><path fill="#ffba57" d="M27.9,28.8L25,30l-1,6c-0.3,2.8-2.6,5.5-5.4,4.9L16,40.4l0,3.6H6L6,5.2C7,5.1,7.9,5,9,5c11.1,0,15.4,7.5,16,15	l3.7,6.2C29.3,27.2,28.9,28.4,27.9,28.8z"></path><path fill="#f9a825" d="M9,44l0-5l7,1.4l0,3.6H9z"></path><path fill="#784719" d="M19,23.5c0-0.8,0.7-1.5,1.5-1.5c0.8,0,1.5,0.7,1.5,1.5S21.3,25,20.5,25S19,24.3,19,23.5"></path><path fill="#7a534b" d="M21,7.7c0,6.6-7,10.3-7,10.3l-2.1,6L6,26.8l0,0.1V4.2C6.8,4.1,7.6,4,8.4,4C12.7,4,18.1,5.2,21,7.7z"></path><path fill="#ffba57" d="M11,27c0,2.2-1.8,4-4,4c-0.3,0-0.7-0.1-1-0.1v-7.7C6.3,23.1,6.7,23,7,23C9.2,23,11,24.8,11,27z"></path></svg>