<svg xmlns="http://www.w3.org/2000/svg" viewBox="0 0 48 48"><path fill="#546e7a" d="M36.588,17.327c-0.398,0.486-1.117,0.566-1.608,0.172l-3.555-2.846 c-0.491-0.393-0.567-1.105-0.17-1.591l2.157-2.643c0.398-0.486,1.117-0.561,1.608-0.168l3.555,2.846 c0.491,0.393,0.567,1.105,0.17,1.591L36.588,17.327z"></path><path fill="#455a64" d="M21,7h6v5h-6V7z"></path><path fill="#eee" d="M39,28c0,8.286-6.714,15-15,15S9,36.286,9,28s6.714-15,15-15S39,19.714,39,28z"></path><path fill="#ff8a65" d="M24,28V13c-4.143,0-7.893,1.679-10.607,4.393L24,28z"></path><path fill="#263238" d="M21,28.032c0,1.655,1.346,2.991,3,2.967c1.659-0.014,2.995-1.373,3-3.032 c-0.005-1.659-1.35-2.986-3.014-2.967C22.332,25.019,20.991,26.373,21,28.032"></path><path fill="#263238" d="M15.515,19.515l9.192,6.364l-2.828,2.828L15.515,19.515z"></path><path fill="#c62828" d="M23,28.016c0.005,0.55,0.452,0.993,1.005,0.984c0.548-0.005,1-0.457,0.995-1.011 c0-0.55-0.452-0.993-1-0.988C23.447,27.009,22.995,27.462,23,28.016"></path><path fill="#c62828" d="M24,10c-9.94,0-18,8.06-18,18s8.06,18,18,18s18-8.06,18-18S33.94,10,24,10z M24,42 c-7.732,0-14-6.268-14-14s6.268-14,14-14s14,6.268,14,14S31.732,42,24,42z"></path><path fill="#90a4ae" d="M29,3v4c0,0.552-0.448,1-1,1h-8c-0.552,0-1-0.448-1-1V3c0-0.552,0.448-1,1-1h8 C28.552,2,29,2.448,29,3z"></path></svg>