<svg xmlns="http://www.w3.org/2000/svg" width="480" height="480" viewBox="0 0 48 48"><path fill="#FFCC80" d="M35,23H23.889h-0.903V8.989C22.985,7.883,21.889,6,19.889,6S17,7.989,17,8.989S17,26,17,26v7.125l-4.375-4.057c-1.39-1.393-3.448-1.519-4.838,0.182c-1.235,1.393-0.928,3.555,0.31,4.789l5.79,5.596C17,43.001,21.658,44,24.741,44h6.879c5.101,0,9.364-4.057,9.364-9.154c0,0,0.016-4.83,0.016-10.846L35,23z"></path><path fill="#FFCC80" d="M22.985 27.086c0 1.604 1.35 2.914 3 2.914 1.652 0 3-1.311 3-2.914V6.912c0-1.603-1.348-2.912-3-2.912-1.649 0-3 1.31-3 2.912V27.086zM34.984 31.086c0 1.604 1.351 2.914 3 2.914 1.652 0 3-1.311 3-2.914L41 12.912C41 11.31 39.65 10 38 10s-3 1.31-3 2.912L34.984 31.086z"></path><path fill="#FFCC80" d="M29,29.086C29,30.689,30.35,32,32,32s3-1.311,3-2.914V8.912C35,7.31,33.65,6,32,6s-3,1.31-3,2.912V29.086z"></path><g><path fill="#F2A25A" d="M23.008 9C23.006 9.008 23 9.029 23 9.029l.008 13.978c0 .552.447 1 1 1s1-.448 1-1L23.008 9zM29.052 8.414c-.021.119-.03.239-.036.361v.002L29 24c0 .552.447 1 1 1s1-.448 1-1L29.052 8.414zM35.037 12.637c-.021.119-.031.239-.037.361V13v12.586c0 .553.447 1 1 1s1-.447 1-1L35.037 12.637z"></path></g><g><path fill="#FFEBEE" d="M18 9.1c.012-1.172.914-2.112 2.022-2.1 1.103.013 1.99.975 1.977 2.143C21.987 10.315 17.988 10.271 18 9.1M8.897 33.186c-.926-.83-1.003-2.252-.174-3.181.832-.925 2.256-1 3.181-.17C12.83 30.667 9.823 34.018 8.897 33.186M24.001 7.1c.012-1.172.914-2.112 2.022-2.1 1.103.013 1.99.975 1.977 2.143C27.988 8.315 23.989 8.271 24.001 7.1M30.016 9.1c.012-1.172.914-2.112 2.022-2.1 1.103.013 1.989.975 1.978 2.143C34.003 10.315 30.004 10.271 30.016 9.1M36.001 13.1c.013-1.172.914-2.112 2.022-2.1 1.103.013 1.99.975 1.977 2.143C39.988 14.315 35.988 14.271 36.001 13.1"></path></g></svg>